<svg width="59" height="73" fill="none" xmlns="http://www.w3.org/2000/svg"><path fill-rule="evenodd" clip-rule="evenodd" d="M58.34 21.545a2.997 2.997 0 00-2.396-1.195h-38.67l-2.475-7.385H3.058a3 3 0 100 6h7.424l13.5 40.285h25.159a3 3 0 000-6H28.299l-1.726-5.149h23.12a3.001 3.001 0 002.884-2.172l6.25-21.75c.26-.906.08-1.88-.487-2.634zm-7.781 9.681h-4.81V26.35h6.211l-1.401 4.876zM32.942 26.35v4.875h6.807V26.35h-6.807zm6.807 10.876v4.875h-6.807v-4.875h6.807zm-12.807-6.001V26.35h-7.657l1.634 4.875h6.023zm-4.013 6.001h4.013v4.875h-2.379l-1.634-4.875zm22.82 0v4.875h1.685l1.401-4.875h-3.086z" fill="#fff"/><path d="M27.406 72.875a5.781 5.781 0 100-11.562 5.781 5.781 0 000 11.562zM44.844 72.875a5.781 5.781 0 100-11.562 5.781 5.781 0 000 11.562zM29.335 10.699l7.547 5.492a1.986 1.986 0 002.818-.494c.646-.936.43-2.232-.48-2.895l-2.373-1.726 9.436-5.09L50.911 18h4.347L49.214 2.309a2.05 2.05 0 00-1.177-1.183 1.97 1.97 0 00-1.643.109L33.146 8.382l-3.022-2.199a1.986 1.986 0 00-2.742.39l-8.481 10.798c-.17.184-.307.397-.405.628h5.106l5.733-7.3z" fill="#fff"/></svg>